# 3ds Max Wavefront OBJ Exporter v0.97b - (c)2007 guruware
# File Created: 01.12.2016 14:18:30

mtllib arrow-001-obj.mtl

#
# object arrow_001
#

v  -8.6436 -6.0000 -10.0000
v  -8.6436 -6.0000 -30.0000
v  -8.3436 -5.5000 -30.6862
v  -8.3436 -5.5000 -10.3000
v  -41.0729 -6.0000 -0.0000
v  -41.5147 -5.5000 -0.0000
v  -8.6436 -6.0000 30.0000
v  -8.3436 -5.5000 30.6862
v  -8.6436 -6.0000 10.0000
v  -8.3436 -5.5000 10.3000
v  41.3564 -6.0000 10.0000
v  41.6564 -5.5000 10.3000
v  41.3564 -6.0000 -10.0000
v  41.6564 -5.5000 -10.3000
v  -8.0436 -5.0000 -31.3724
v  -8.0436 -5.0000 -10.6000
v  -41.9564 -5.0000 -0.0000
v  -8.0436 -5.0000 31.3724
v  -8.0436 -5.0000 10.6000
v  41.9564 -5.0000 10.6000
v  41.9564 -5.0000 -10.6000
v  -8.0436 0.0000 -31.3724
v  -8.0436 0.0000 -10.6000
v  -41.9564 0.0000 -0.0000
v  -8.0436 0.0000 31.3724
v  -8.0436 0.0000 10.6000
v  41.9564 0.0000 10.6000
v  41.9564 0.0000 -10.6000
v  -8.0436 5.0000 -31.3724
v  -8.0436 5.0000 -10.6000
v  -41.9564 5.0000 -0.0000
v  -8.0436 5.0000 31.3724
v  -8.0436 5.0000 10.6000
v  41.9564 5.0000 10.6000
v  41.9564 5.0000 -10.6000
v  -8.3436 5.5000 -30.6862
v  -8.3436 5.5000 -10.3000
v  -41.5147 5.5000 -0.0000
v  -8.3436 5.5000 30.6862
v  -8.3436 5.5000 10.3000
v  41.6564 5.5000 10.3000
v  41.6564 5.5000 -10.3000
v  -8.6436 6.0000 -30.0000
v  -8.6436 6.0000 -10.0000
v  -41.0729 6.0000 -0.0000
v  -8.6436 6.0000 30.0000
v  -8.6436 6.0000 10.0000
v  41.3564 6.0000 10.0000
v  41.3564 6.0000 -10.0000
# 49 vertices

vn 0.8575 -0.5145 -0.0000
vn -0.5823 -0.5145 -0.6295
vn -0.5823 -0.5145 0.6295
vn 0.0000 -0.5145 0.8575
vn 0.0000 -0.5145 -0.8575
vn 1.0000 0.0000 -0.0000
vn -0.6791 0.0000 -0.7341
vn -0.6791 0.0000 0.7341
vn 0.0000 0.0000 1.0000
vn 0.0000 0.0000 -1.0000
vn 0.8575 0.5145 -0.0000
vn -0.5823 0.5145 -0.6295
vn -0.5823 0.5145 0.6295
vn 0.0000 0.5145 0.8575
vn 0.0000 0.5145 -0.8575
vn 0.0000 1.0000 -0.0000
vn 0.0000 -1.0000 -0.0000
# 17 vertex normals

g arrow_001
usemtl wire_108008136
s 2
f 1//1 2//1 3//1 4//1 
s 4
f 2//2 5//2 6//2 3//2 
s 8
f 5//3 7//3 8//3 6//3 
s 16
f 7//1 9//1 10//1 8//1 
s 2
f 9//4 11//4 12//4 10//4 
s 4
f 11//1 13//1 14//1 12//1 
s 9
f 13//5 1//5 4//5 14//5 
s 2
f 4//1 3//1 15//1 16//1 
s 4
f 3//2 6//2 17//2 15//2 
s 8
f 6//3 8//3 18//3 17//3 
s 16
f 8//1 10//1 19//1 18//1 
s 2
f 10//4 12//4 20//4 19//4 
s 4
f 12//1 14//1 21//1 20//1 
s 9
f 14//5 4//5 16//5 21//5 
s 64
f 16//6 15//6 22//6 23//6 
s 128
f 15//7 17//7 24//7 22//7 
s 256
f 17//8 18//8 25//8 24//8 
s 512
f 18//6 19//6 26//6 25//6 
s 64
f 19//9 20//9 27//9 26//9 
s 128
f 20//6 21//6 28//6 27//6 
s 288
f 21//10 16//10 23//10 28//10 
s 64
f 23//6 22//6 29//6 30//6 
s 128
f 22//7 24//7 31//7 29//7 
s 256
f 24//8 25//8 32//8 31//8 
s 512
f 25//6 26//6 33//6 32//6 
s 64
f 26//9 27//9 34//9 33//9 
s 128
f 27//6 28//6 35//6 34//6 
s 288
f 28//10 23//10 30//10 35//10 
s 2
f 30//11 29//11 36//11 37//11 
s 4
f 29//12 31//12 38//12 36//12 
s 8
f 31//13 32//13 39//13 38//13 
s 16
f 32//11 33//11 40//11 39//11 
s 2
f 33//14 34//14 41//14 40//14 
s 4
f 34//11 35//11 42//11 41//11 
s 9
f 35//15 30//15 37//15 42//15 
s 2
f 37//11 36//11 43//11 44//11 
s 4
f 36//12 38//12 45//12 43//12 
s 8
f 38//13 39//13 46//13 45//13 
s 16
f 39//11 40//11 47//11 46//11 
s 2
f 40//14 41//14 48//14 47//14 
s 4
f 41//11 42//11 49//11 48//11 
s 9
f 42//15 37//15 44//15 49//15 
s 1024
f 45//16 46//16 47//16 44//16 
f 44//16 43//16 45//16 
f 49//16 44//16 47//16 48//16 
f 5//17 1//17 9//17 7//17 
f 1//17 5//17 2//17 
f 13//17 11//17 9//17 1//17 
# 46 polygons - 2 triangles

